<?xml version="1.0" encoding="utf-8"?>
<!-- Generator: Adobe Illustrator 16.0.0, SVG Export Plug-In . SVG Version: 6.00 Build 0)  -->
<!DOCTYPE svg PUBLIC "-//W3C//DTD SVG 1.1//EN" "http://www.w3.org/Graphics/SVG/1.1/DTD/svg11.dtd">
<svg version="1.1" id="Layer_1" xmlns="http://www.w3.org/2000/svg" xmlns:xlink="http://www.w3.org/1999/xlink" x="0px" y="0px"
	 width="512px" height="512px" viewBox="0 0 512 512" enable-background="new 0 0 512 512" xml:space="preserve">
<path d="M304,352c0,26.5-21.5,48-48,48s-48-21.5-48-48c0-20.875,13.406-38.438,32-45.063V288h32v18.938
	C290.594,313.563,304,331.125,304,352z M416,352c0,88.375-71.625,160-160,160S96,440.375,96,352c0-35.781,12.156-68.5,32-95.125V128
	C128,57.313,185.313,0,256,0s128,57.313,128,128v128.875C403.844,283.5,416,316.219,416,352z M352,352
	c0-47.531-34.656-86.75-80-94.375V240h-32v17.625c-45.359,7.625-80,46.844-80,94.375c0,53,42.984,96,96,96C309,448,352,405,352,352z
	 M352,128c0-52.938-43.063-96-96-96s-96,43.063-96,96v96.719C186.813,204.469,219.813,192,256,192s69.188,12.469,96,32.719V128z"/>
</svg>
